HIERARCHY
ROOT ui
{
	 OFFSET 0 0 0
	 CHANNELS 3 XPosition YPosition Z Position
	 EndSite
	 {
	 OFFSET 0 -1 0
	 }
}
ROOT li
{
	 OFFSET 0 0 0
	 CHANNELS 3 XPosition YPosition Z Position
	 EndSite
	 {
	 OFFSET 0 -1 0
	 }
}
ROOT ul
{
	 OFFSET 0 0 0
	 CHANNELS 3 XPosition YPosition Z Position
	 EndSite
	 {
	 OFFSET 0 -1 0
	 }
}
ROOT ll
{
	 OFFSET 0 0 0
	 CHANNELS 3 XPosition YPosition Z Position
	 EndSite
	 {
	 OFFSET 0 -1 0
	 }
}
ROOT tt
{
	 OFFSET 0 0 0
	 CHANNELS 3 XPosition YPosition Z Position
	 EndSite
	 {
	 OFFSET 0 -1 0
	 }
}
ROOT tb
{
	 OFFSET 0 0 0
	 CHANNELS 3 XPosition YPosition Z Position
	 EndSite
	 {
	 OFFSET 0 -1 0
	 }
}
ROOT td
{
	 OFFSET 0 0 0
	 CHANNELS 3 XPosition YPosition Z Position
	 EndSite
	 {
	 OFFSET 0 -1 0
	 }
}
ROOT v
{
	 OFFSET 0 0 0
	 CHANNELS 3 XPosition YPosition Z Position
	 EndSite
	 {
	 OFFSET 0 -1 0
	 }
}
ROOT bn
{
	 OFFSET 0 0 0
	 CHANNELS 3 XPosition YPosition Z Position
	 EndSite
	 {
	 OFFSET 0 -1 0
	 }
}
MOTION
Frames: 13
Frame Time: 0.002
0.0010177429914474487	-6.788989901542663E-4	0		0.43239794921875	-2.327680419921875	0		-1.1437384033203124	-0.06027323532104492	0		-0.9177831420898438	-2.277322265625	0		1.4424920654296876	-0.4573406372070313	0		3.002589111328125	0.11245057678222656	0		4.4147890625	0.1456306915283203	0		5.5980244140625	0.14128489685058593	0		-0.22599021911621095	5.9294609375	0		
0.019507369995117187	0.002974208116531372	0		0.4577348327636719	-2.331189697265625	0		-1.144338623046875	-0.060172290802001954	0		-0.9250779418945313	-2.265055419921875	0		1.43606396484375	-0.4500792236328125	0		3.007794189453125	0.10444025421142578	0		4.4141875	0.1457720184326172	0		5.6032294921875	0.13329342651367188	0		-0.23986976623535156	5.9198828125	0		
-0.005063002109527588	0.004658339977264404	0		0.4204012145996094	-2.32019384765625	0		-1.1120445556640626	-0.06486008453369141	0		-0.8958861694335938	-2.27466845703125	0		1.432371337890625	-0.4538857421875	0		3.010335205078125	0.11049905395507813	0		4.4087783203125	0.1540323486328125	0		5.60262744140625	0.13344529724121093	0		-0.24051548767089845	5.91999072265625	0		
0.017045745849609373	-0.007778571128845215	0		0.45247705078125	-2.3348662109375	0		-1.155485595703125	-0.0577310676574707	0		-0.932384033203125	-2.270704345703125	0		1.43177734375	-0.4537646179199219	0		3.0024755859375	0.09980292510986329	0		4.404037109375	0.14827369689941405	0		5.59203173828125	0.13383767700195312	0		-0.2411582489013672	5.9200986328125	0		
-0.0013728970289230346	-2.3934899270534516E-4	0		0.42803030395507813	-2.329179443359375	0		-1.1491981201171875	-0.06279562759399414	0		-0.8970398559570313	-2.274461669921875	0		1.437020263671875	-0.46078460693359374	0		2.98419970703125	0.11336357879638671	0		4.41239404296875	0.14620353698730468	0		5.591439453125	0.13399147033691405	0		-0.22855996704101564	5.9298935546875	0		
-0.0019572199583053587	-1.2833400070667267E-4	0		0.44134075927734373	-2.3343984375	0		-1.1385458984375	-0.052959606170654296	0		-0.952494873046875	-2.269043212890625	0		1.4416295166015625	-0.4527841491699219	0		3.0494521484375	0.10592131805419921	0		4.415951171875	0.152251953125	0		5.6049697265625	0.138810302734375	0		-0.21493194580078126	5.94066455078125	0		
0.005415432929992676	-0.0022066900730133058	0		0.43100030517578125	-2.3250458984375	0		-1.1072275390625	-0.05762033462524414	0		-0.8929993286132812	-2.2673740234375	0		1.4331298828125	-0.44946978759765627	0		2.987178466796875	0.11953710174560547	0		4.41123046875	0.14649713134765624	0		5.60027294921875	0.13406474304199217	0		-0.22981590270996094	5.93011328125	0		
-0.007983825206756591	0.005216722011566162	0		0.4175721435546875	-2.31961865234375	0		-1.150928466796875	-0.06248524475097656	0		-0.934635009765625	-2.27028564453125	0		1.429468505859375	-0.4532706298828125	0		3.000149169921875	0.10034689331054687	0		4.40751611328125	0.14072113037109374	0		5.59970166015625	0.13422500610351562	0		-0.24366978454589844	5.92053955078125	0		
-0.008547082901000976	0.005334379196166993	0		0.41702798461914065	-2.319497314453125	0		-1.115525390625	-0.06423681640625	0		-0.8992615966796875	-2.27403466796875	0		1.4289090576171875	-0.45314117431640627	0		2.98358984375	0.10087152099609376	0		4.40695166015625	0.14087501525878907	0		5.5849501953125	0.12672545623779297	0		-0.2442815704345703	5.9206552734375	0		
-0.004222929000854492	3.3718100190162657E-4	0		0.425274658203125	-2.32858544921875	0		-1.152045654296875	-0.062265613555908206	0		-0.9249100341796875	-2.27832275390625	0		1.43418896484375	-0.46014981079101563	0		2.999029296875	0.10063489532470703	0		4.4063955078125	0.1410323028564453	0		5.59277392578125	0.14269683837890626	0		-0.23165032958984375	5.9304609375	0		
-0.004766889095306396	4.604170024394989E-4	0		0.42679736328125	-2.326507080078125	0		-1.112552734375	-0.06110759353637695	0		-0.8874696044921875	-2.2801142578125	0		1.4367435302734375	-0.4560872802734375	0		2.99679541015625	0.11382730865478516	0		4.4089931640625	0.14711911010742187	0		5.59796435546875	0.13172679138183593	0		-0.21798526000976562	5.94124462890625	0		
-0.005295677185058594	5.848240256309509E-4	0		0.42628836059570313	-2.32637890625	0		-1.109986328125	-0.057065345764160155	0		-0.8987849731445312	-2.271737060546875	0		1.4303873291015625	-0.44880941772460936	0		3.0020732421875	0.1058363037109375	0		4.408462890625	0.1472810363769531	0		5.59169873046875	0.14303889465332031	0		-0.24605807495117188	5.921017578125	0		
0.015094411849975587	-0.0037908499240875246	0		0.47559481811523435	-2.335441650390625	0		-1.1176593017578125	-0.06378163909912109	0		-0.9013209838867188	-2.273572265625	0		1.4267882080078125	-0.45260009765625	0		3.020677490234375	0.11053170776367187	0		4.40481103515625	0.1415166015625	0		5.59699658203125	0.13507049560546874	0		-0.23338272094726562	5.9308271484375	0		
